# xmcd CD database file
#
# Track frame offsets:
#	150
#	9046
#	31160
#	52667
#	81899
#	99781
#	123508
#	143277
#	166002
#	187928
#	205011
#	221967
#	246693
#	268468
#	285976
#	317522
#
# Disc length: 4522 seconds
#
# Revision: 0
# Processed by: cddbd v1.5.2PL0 Copyright (c) Steve Scherf et al.
# Submitted via: CDex 1.51
#
DISCID=cb11a810
DTITLE=Kevin Kern - Harmony Moment
DYEAR=2010
DGENRE=New Age
TTITLE0=Joy Of The Journey
TTITLE1=Scene In A Dream
TTITLE2=Sundial Dreams
TTITLE3=Endless Blue Sky
TTITLE4=Dance Of The Dragonfly
TTITLE5=The Glistening Pond
TTITLE6=Light Spirit
TTITLE7=Another Realm
TTITLE8=Le Jardin
TTITLE9=Safe In Your Embrace
TTITLE10=Through The Arbor
TTITLE11=Cauldron Of Healing
TTITLE12=A Thousand Miles Away
TTITLE13=Velvet Green
TTITLE14=Twilight's Embrace
TTITLE15=Touch The Sky
EXTD=YEAR: 2010
EXTT0=
EXTT1=
EXTT2=
EXTT3=
EXTT4=
EXTT5=
EXTT6=
EXTT7=
EXTT8=
EXTT9=
EXTT10=
EXTT11=
EXTT12=
EXTT13=
EXTT14=
EXTT15=
PLAYORDER=
